<svg width="24" height="32" viewBox="0 0 24 32" fill="none" xmlns="http://www.w3.org/2000/svg">
<ellipse opacity="0.4" cx="12.25" cy="30" rx="4" ry="2" fill="#444444"/>
<path d="M12 27L11.7451 27.4297L12 27.5811L12.2549 27.4297L12 27ZM12 27L12.2559 27.4297L12.2578 27.4277C12.2595 27.4267 12.2626 27.4256 12.2656 27.4238C12.2716 27.4203 12.2802 27.4148 12.291 27.4082C12.3131 27.3948 12.3453 27.3753 12.3867 27.3496C12.4701 27.2979 12.5917 27.2218 12.7451 27.1221C13.0521 26.9225 13.4894 26.6284 14.0127 26.249C15.0584 25.4909 16.4541 24.3878 17.8516 23.0078C20.6281 20.266 23.4998 16.344 23.5 11.8057C23.5 5.55127 18.3452 0.5 12 0.5C5.65482 0.5 0.5 5.55127 0.5 11.8057C0.500198 16.344 3.37194 20.266 6.14844 23.0078C7.54592 24.3878 8.94164 25.4909 9.9873 26.249C10.5106 26.6284 10.9479 26.9225 11.2549 27.1221C11.4083 27.2218 11.5299 27.2979 11.6133 27.3496C11.6547 27.3753 11.6869 27.3948 11.709 27.4082C11.7198 27.4148 11.7284 27.4203 11.7344 27.4238C11.7374 27.4256 11.7405 27.4267 11.7422 27.4277L11.7441 27.4297L12 27Z" fill="#6001D2" stroke="white"/>
<path d="M8.48112 17V7.2H12.6881C13.3368 7.2 13.8875 7.30267 14.3401 7.508C14.7975 7.70867 15.1428 7.99333 15.3761 8.362C15.6095 8.726 15.7261 9.15533 15.7261 9.65C15.7261 10.042 15.6561 10.3873 15.5161 10.686C15.3808 10.9847 15.1941 11.232 14.9561 11.428C14.7228 11.624 14.4521 11.7757 14.1441 11.883C14.4988 11.967 14.8161 12.107 15.0961 12.303C15.3808 12.499 15.6071 12.758 15.7751 13.08C15.9478 13.402 16.0341 13.7777 16.0341 14.207C16.0341 14.795 15.8965 15.299 15.6211 15.719C15.3458 16.139 14.9608 16.4587 14.4661 16.678C13.9761 16.8927 13.4091 17 12.7651 17H8.48112ZM12.6601 15.495C13.0335 15.495 13.3531 15.439 13.6191 15.327C13.8851 15.2103 14.0858 15.047 14.2211 14.837C14.3611 14.627 14.4311 14.3773 14.4311 14.088C14.4311 13.7893 14.3635 13.535 14.2281 13.325C14.0928 13.115 13.8921 12.9563 13.6261 12.849C13.3601 12.737 13.0381 12.681 12.6601 12.681H10.0911V15.495H12.6601ZM12.5551 11.267C12.8958 11.267 13.1851 11.2157 13.4231 11.113C13.6611 11.0057 13.8408 10.8563 13.9621 10.665C14.0881 10.469 14.1511 10.2357 14.1511 9.965C14.1511 9.69433 14.0881 9.461 13.9621 9.265C13.8408 9.069 13.6611 8.91967 13.4231 8.817C13.1851 8.71433 12.8958 8.663 12.5551 8.663H10.0911V11.267H12.5551Z" fill="white"/>
</svg>
