<svg width="22" height="29" viewBox="0 0 22 29" fill="none" xmlns="http://www.w3.org/2000/svg">
<ellipse opacity="0.4" cx="11" cy="27" rx="4" ry="2" fill="#444444"/>
<path d="M11 25L10.7422 25.4277L11 25.584L11.2578 25.4277L11 25ZM11 25L11.2588 25.4277L11.2607 25.4268C11.2623 25.4258 11.2648 25.4245 11.2676 25.4229C11.2731 25.4195 11.2809 25.4144 11.291 25.4082C11.3113 25.3957 11.3409 25.3774 11.3789 25.3535C11.455 25.3056 11.5653 25.2348 11.7051 25.1426C11.9848 24.958 12.383 24.6866 12.8594 24.3359C13.8113 23.6352 15.0821 22.6147 16.3545 21.3389C18.8816 18.8048 21.5 15.1757 21.5 10.9736C21.4998 5.1858 16.7998 0.5 11 0.5C5.20022 0.5 0.500213 5.1858 0.5 10.9736C0.5 15.1757 3.11843 18.8048 5.64551 21.3389C6.91789 22.6147 8.18868 23.6352 9.14062 24.3359C9.61702 24.6866 10.0152 24.958 10.2949 25.1426C10.4347 25.2348 10.545 25.3056 10.6211 25.3535C10.6591 25.3774 10.6887 25.3957 10.709 25.4082C10.7191 25.4144 10.7269 25.4195 10.7324 25.4229C10.7352 25.4245 10.7377 25.4258 10.7393 25.4268L10.7412 25.4277L11 25Z" fill="#444444" stroke="white"/>
<path d="M11.1462 16.668C10.2035 16.668 9.36818 16.4533 8.64018 16.024C7.91685 15.5947 7.35451 14.9973 6.95318 14.232C6.55185 13.462 6.35118 12.5847 6.35118 11.6C6.35118 10.6153 6.55185 9.74033 6.95318 8.975C7.35451 8.205 7.91685 7.60533 8.64018 7.176C9.36818 6.74667 10.2035 6.532 11.1462 6.532C11.9535 6.532 12.6698 6.67667 13.2952 6.966C13.9252 7.25533 14.4455 7.673 14.8562 8.219C15.2715 8.765 15.5632 9.41833 15.7312 10.179H14.0582C13.9415 9.73567 13.7525 9.35533 13.4912 9.038C13.2345 8.716 12.9078 8.46867 12.5112 8.296C12.1192 8.12333 11.6642 8.037 11.1462 8.037C10.5068 8.037 9.94918 8.18867 9.47318 8.492C8.99718 8.79533 8.63085 9.21767 8.37418 9.759C8.11751 10.2957 7.98918 10.9093 7.98918 11.6C7.98918 12.2907 8.11751 12.9067 8.37418 13.448C8.63085 13.9847 8.99718 14.4047 9.47318 14.708C9.94918 15.0113 10.5068 15.163 11.1462 15.163C11.6642 15.163 12.1192 15.0767 12.5112 14.904C12.9078 14.7313 13.2345 14.4863 13.4912 14.169C13.7525 13.847 13.9415 13.4643 14.0582 13.021H15.7312C15.5632 13.7817 15.2715 14.435 14.8562 14.981C14.4455 15.527 13.9252 15.9447 13.2952 16.234C12.6698 16.5233 11.9535 16.668 11.1462 16.668Z" fill="white"/>
</svg>
