<svg preserveAspectRatio="none" width="100%" height="100%" overflow="visible" style="display: block;" viewBox="0 0 288.566 80" fill="none" xmlns="http://www.w3.org/2000/svg">
<path id="Vector" d="M83.2655 19.5568V23.6997C80.8865 20.6151 76.4813 18.5074 71.3795 18.5074C59.3216 18.5074 50.3392 29.1542 50.3392 41.6553C50.3392 54.5002 59.2312 64.8032 71.3795 64.8032C76.4813 64.8032 80.8865 62.777 83.2655 59.5206V63.6545H98.3085V19.5568H83.2655ZM103.501 0.0179986V63.6545H119.086V40.1357C119.086 35.5586 121.285 32.8358 124.803 32.8358C128.322 32.8358 130.176 35.2057 130.176 39.611V63.6364H145.753V35.9113C145.753 25.1741 139.946 18.4893 130.611 18.4893C128.39 18.4089 126.181 18.8526 124.163 19.7845C122.145 20.7164 120.375 22.1104 118.996 23.8535V0L103.501 0.0179986ZM246.006 41.6282C246.006 54.8258 235.884 64.7761 222.415 64.7761C208.946 64.7761 198.824 54.8258 198.824 41.6282C198.824 28.4305 208.946 18.4803 222.415 18.4803C235.884 18.4803 246.006 28.4305 246.006 41.6282ZM196.183 41.6282C196.183 54.8258 186.061 64.7761 172.601 64.7761C159.141 64.7761 149.01 54.8258 149.01 41.6282C149.01 28.4305 159.132 18.4803 172.601 18.4803C186.07 18.4803 196.183 28.4305 196.183 41.6282ZM0 19.5296L18.8331 63.9801L12.0579 80H28.6025L53.6862 19.5296H37.232L27.0195 45.4002L16.8973 19.5206L0 19.5296ZM74.5455 50.692C73.3455 50.7174 72.1527 50.5017 71.0376 50.0575C69.9226 49.6133 68.9081 48.9497 68.0544 48.1061C67.2006 47.2625 66.525 46.256 66.0675 45.1464C65.6101 44.0367 65.3801 42.8465 65.3913 41.6463C65.3789 40.4457 65.608 39.2549 66.065 38.1447C66.522 37.0345 67.1976 36.0275 68.0516 35.1837C68.9056 34.3398 69.9206 33.6763 71.0362 33.2325C72.1518 32.7888 73.3452 32.5738 74.5455 32.6006C75.7374 32.586 76.9202 32.81 78.0243 33.2595C79.1283 33.7089 80.1313 34.3747 80.9742 35.2176C81.8171 36.0604 82.4829 37.0634 82.9323 38.1675C83.3817 39.2715 83.6058 40.4543 83.5912 41.6463C83.6058 42.8382 83.3817 44.021 82.9323 45.1251C82.4829 46.2291 81.8171 47.2321 80.9742 48.075C80.1313 48.9179 79.1283 49.5836 78.0243 50.0331C76.9202 50.4825 75.7374 50.7065 74.5455 50.692V50.692ZM181.402 41.6463C181.43 40.4785 181.223 39.3172 180.791 38.2316C180.36 37.146 179.714 36.1586 178.893 35.3284C178.071 34.4983 177.09 33.8424 176.009 33.4001C174.928 32.9578 173.769 32.7382 172.601 32.7544C171.433 32.7382 170.274 32.9578 169.192 33.4001C168.111 33.8424 167.131 34.4983 166.309 35.3284C165.487 36.1586 164.841 37.146 164.41 38.2316C163.979 39.3172 163.771 40.4785 163.799 41.6463C163.771 42.8136 163.979 43.9746 164.41 45.0597C164.842 46.1448 165.488 47.1316 166.309 47.961C167.131 48.7905 168.112 49.4455 169.193 49.8868C170.274 50.3281 171.433 50.5466 172.601 50.5292C173.768 50.5466 174.927 50.3281 176.008 49.8868C177.089 49.4455 178.07 48.7905 178.892 47.961C179.714 47.1316 180.36 46.1448 180.791 45.0597C181.223 43.9746 181.43 42.8136 181.402 41.6463ZM231.217 41.6463C231.245 40.4785 231.037 39.3172 230.606 38.2316C230.175 37.146 229.529 36.1586 228.707 35.3284C227.885 34.4983 226.905 33.8424 225.824 33.4001C224.743 32.9578 223.583 32.7382 222.415 32.7544C221.247 32.7382 220.088 32.9578 219.007 33.4001C217.926 33.8424 216.945 34.4983 216.124 35.3284C215.302 36.1586 214.656 37.146 214.225 38.2316C213.794 39.3172 213.586 40.4785 213.614 41.6463C213.586 42.8136 213.794 43.9746 214.225 45.0597C214.656 46.1448 215.302 47.1316 216.124 47.961C216.946 48.7905 217.927 49.4455 219.008 49.8868C220.089 50.3281 221.248 50.5466 222.415 50.5292C223.583 50.5466 224.742 50.3281 225.823 49.8868C226.904 49.4455 227.885 48.7905 228.707 47.961C229.529 47.1316 230.174 46.1448 230.606 45.0597C231.037 43.9746 231.245 42.8136 231.217 41.6463ZM247.942 54.3102C247.924 55.6446 248.173 56.9692 248.675 58.2059C249.176 59.4426 249.92 60.5664 250.862 61.5113C251.805 62.4562 252.926 63.2031 254.162 63.7078C255.397 64.2126 256.721 64.4651 258.055 64.4505C259.434 64.4614 260.801 64.1977 262.077 63.6751C263.352 63.1526 264.512 62.3815 265.486 61.4067C266.461 60.4318 267.232 59.2727 267.755 57.997C268.278 56.7212 268.541 55.3541 268.53 53.9755C268.554 52.6399 268.308 51.3132 267.807 50.0746C267.307 48.836 266.562 47.7109 265.617 46.7663C264.673 45.8217 263.548 45.077 262.309 44.5765C261.071 44.0761 259.744 43.8302 258.408 43.8535C257.031 43.8487 255.667 44.1164 254.394 44.6411C253.121 45.1658 251.964 45.9372 250.991 46.9108C250.017 47.8844 249.246 49.0411 248.721 50.3141C248.196 51.5871 247.928 52.9514 247.933 54.3283L247.942 54.3102ZM270.122 0.0361077L253.533 39.9728H272.022L288.566 0.0089441L270.122 0.0361077Z" fill="var(--fill-0, #6001D2)"/>
</svg>
