<svg width="24" height="32" viewBox="0 0 24 32" fill="none" xmlns="http://www.w3.org/2000/svg">
<ellipse opacity="0.4" cx="12.25" cy="30" rx="4" ry="2" fill="#444444"/>
<path d="M12 27L11.7451 27.4297L12 27.5811L12.2549 27.4297L12 27ZM12 27L12.2559 27.4297L12.2578 27.4277C12.2595 27.4267 12.2626 27.4256 12.2656 27.4238C12.2716 27.4203 12.2802 27.4148 12.291 27.4082C12.3131 27.3948 12.3453 27.3753 12.3867 27.3496C12.4701 27.2979 12.5917 27.2218 12.7451 27.1221C13.0521 26.9225 13.4894 26.6284 14.0127 26.249C15.0584 25.4909 16.4541 24.3878 17.8516 23.0078C20.6281 20.266 23.4998 16.344 23.5 11.8057C23.5 5.55127 18.3452 0.5 12 0.5C5.65482 0.5 0.5 5.55127 0.5 11.8057C0.500198 16.344 3.37194 20.266 6.14844 23.0078C7.54592 24.3878 8.94164 25.4909 9.9873 26.249C10.5106 26.6284 10.9479 26.9225 11.2549 27.1221C11.4083 27.2218 11.5299 27.2979 11.6133 27.3496C11.6547 27.3753 11.6869 27.3948 11.709 27.4082C11.7198 27.4148 11.7284 27.4203 11.7344 27.4238C11.7374 27.4256 11.7405 27.4267 11.7422 27.4277L11.7441 27.4297L12 27Z" fill="#6001D2" stroke="white"/>
<path d="M12.2712 17.168C11.3285 17.168 10.4932 16.9533 9.76518 16.524C9.04185 16.0947 8.47951 15.4973 8.07818 14.732C7.67685 13.962 7.47618 13.0847 7.47618 12.1C7.47618 11.1153 7.67685 10.2403 8.07818 9.475C8.47951 8.705 9.04185 8.10533 9.76518 7.676C10.4932 7.24667 11.3285 7.032 12.2712 7.032C13.0785 7.032 13.7948 7.17667 14.4202 7.466C15.0502 7.75533 15.5705 8.173 15.9812 8.719C16.3965 9.265 16.6882 9.91833 16.8562 10.679H15.1832C15.0665 10.2357 14.8775 9.85533 14.6162 9.538C14.3595 9.216 14.0328 8.96867 13.6362 8.796C13.2442 8.62333 12.7892 8.537 12.2712 8.537C11.6318 8.537 11.0742 8.68867 10.5982 8.992C10.1222 9.29533 9.75585 9.71767 9.49918 10.259C9.24251 10.7957 9.11418 11.4093 9.11418 12.1C9.11418 12.7907 9.24251 13.4067 9.49918 13.948C9.75585 14.4847 10.1222 14.9047 10.5982 15.208C11.0742 15.5113 11.6318 15.663 12.2712 15.663C12.7892 15.663 13.2442 15.5767 13.6362 15.404C14.0328 15.2313 14.3595 14.9863 14.6162 14.669C14.8775 14.347 15.0665 13.9643 15.1832 13.521H16.8562C16.6882 14.2817 16.3965 14.935 15.9812 15.481C15.5705 16.027 15.0502 16.4447 14.4202 16.734C13.7948 17.0233 13.0785 17.168 12.2712 17.168Z" fill="white"/>
</svg>
