<svg width="22" height="29" viewBox="0 0 22 29" fill="none" xmlns="http://www.w3.org/2000/svg">
<ellipse opacity="0.4" cx="11" cy="27" rx="4" ry="2" fill="#444444"/>
<path d="M11 25L10.7422 25.4277L11 25.584L11.2578 25.4277L11 25ZM11 25L11.2588 25.4277L11.2607 25.4268C11.2623 25.4258 11.2648 25.4245 11.2676 25.4229C11.2731 25.4195 11.2809 25.4144 11.291 25.4082C11.3113 25.3957 11.3409 25.3774 11.3789 25.3535C11.455 25.3056 11.5653 25.2348 11.7051 25.1426C11.9848 24.958 12.383 24.6866 12.8594 24.3359C13.8113 23.6352 15.0821 22.6147 16.3545 21.3389C18.8816 18.8048 21.5 15.1757 21.5 10.9736C21.4998 5.1858 16.7998 0.5 11 0.5C5.20022 0.5 0.500213 5.1858 0.5 10.9736C0.5 15.1757 3.11843 18.8048 5.64551 21.3389C6.91789 22.6147 8.18868 23.6352 9.14062 24.3359C9.61702 24.6866 10.0152 24.958 10.2949 25.1426C10.4347 25.2348 10.545 25.3056 10.6211 25.3535C10.6591 25.3774 10.6887 25.3957 10.709 25.4082C10.7191 25.4144 10.7269 25.4195 10.7324 25.4229C10.7352 25.4245 10.7377 25.4258 10.7393 25.4268L10.7412 25.4277L11 25Z" fill="#444444" stroke="white"/>
<path d="M7.35612 16.5V6.7H11.5631C12.2118 6.7 12.7625 6.80267 13.2151 7.008C13.6725 7.20867 14.0178 7.49333 14.2511 7.862C14.4845 8.226 14.6011 8.65533 14.6011 9.15C14.6011 9.542 14.5311 9.88733 14.3911 10.186C14.2558 10.4847 14.0691 10.732 13.8311 10.928C13.5978 11.124 13.3271 11.2757 13.0191 11.383C13.3738 11.467 13.6911 11.607 13.9711 11.803C14.2558 11.999 14.4821 12.258 14.6501 12.58C14.8228 12.902 14.9091 13.2777 14.9091 13.707C14.9091 14.295 14.7715 14.799 14.4961 15.219C14.2208 15.639 13.8358 15.9587 13.3411 16.178C12.8511 16.3927 12.2841 16.5 11.6401 16.5H7.35612ZM11.5351 14.995C11.9085 14.995 12.2281 14.939 12.4941 14.827C12.7601 14.7103 12.9608 14.547 13.0961 14.337C13.2361 14.127 13.3061 13.8773 13.3061 13.588C13.3061 13.2893 13.2385 13.035 13.1031 12.825C12.9678 12.615 12.7671 12.4563 12.5011 12.349C12.2351 12.237 11.9131 12.181 11.5351 12.181H8.96612V14.995H11.5351ZM11.4301 10.767C11.7708 10.767 12.0601 10.7157 12.2981 10.613C12.5361 10.5057 12.7158 10.3563 12.8371 10.165C12.9631 9.969 13.0261 9.73567 13.0261 9.465C13.0261 9.19433 12.9631 8.961 12.8371 8.765C12.7158 8.569 12.5361 8.41967 12.2981 8.317C12.0601 8.21433 11.7708 8.163 11.4301 8.163H8.96612V10.767H11.4301Z" fill="white"/>
</svg>
