<svg width="14" height="18" viewBox="0 0 14 18" fill="none" xmlns="http://www.w3.org/2000/svg">
<ellipse opacity="0.4" cx="7" cy="16.5" rx="3" ry="1.5" fill="#444444"/>
<path d="M7 0.5C10.5765 0.5 13.5 3.31328 13.5 6.81836C13.4999 9.35984 11.8746 11.529 10.3486 13.0166C9.57595 13.7698 8.80541 14.3713 8.22852 14.7842C7.93959 14.9909 7.69764 15.1515 7.52734 15.2607C7.44235 15.3153 7.37485 15.3571 7.32812 15.3857C7.30492 15.3999 7.28709 15.4114 7.27441 15.4189C7.26806 15.4228 7.26234 15.4256 7.25879 15.4277C7.25726 15.4286 7.25585 15.4291 7.25488 15.4297L7.25293 15.4316L7 15.5791L6.74707 15.4316L6.74512 15.4297C6.74415 15.4291 6.74274 15.4286 6.74121 15.4277C6.73766 15.4256 6.73194 15.4228 6.72559 15.4189C6.71291 15.4114 6.69508 15.3999 6.67188 15.3857C6.62515 15.3571 6.55765 15.3153 6.47266 15.2607C6.30236 15.1515 6.06041 14.9909 5.77148 14.7842C5.19459 14.3713 4.42405 13.7698 3.65137 13.0166C2.12538 11.529 0.500076 9.35984 0.5 6.81836C0.5 3.31328 3.42347 0.5 7 0.5Z" fill="#444444" stroke="white"/>
</svg>
