<svg width="14" height="14" viewBox="0 0 14 14" fill="none" xmlns="http://www.w3.org/2000/svg">
<g clip-path="url(#clip0_350_7147)">
<path d="M11.6667 0H2.33333C1.04467 0 0 1.04467 0 2.33333V11.6667C0 12.9553 1.04467 14 2.33333 14H11.6667C12.9553 14 14 12.9553 14 11.6667V2.33333C14 1.04467 12.9553 0 11.6667 0Z" fill="#D32323"/>
<mask id="mask0_350_7147" style="mask-type:alpha" maskUnits="userSpaceOnUse" x="2" y="2" width="10" height="10">
<path d="M11.2655 5.57794H8.29796L7.38118 2.62327C7.32772 2.45038 7.17372 2.3335 6.99978 2.3335C6.82627 2.3335 6.67227 2.45038 6.61881 2.62327L5.70161 5.57794H2.73404C2.56052 5.57794 2.40653 5.69483 2.35307 5.86772C2.29919 6.04061 2.35816 6.22994 2.49859 6.33705L4.89937 8.16283L3.98216 11.1175C3.9287 11.2904 3.98725 11.4797 4.1281 11.5864C4.26852 11.6935 4.45858 11.6935 4.59943 11.5864L6.99978 9.76061L9.40056 11.5864C9.47099 11.6402 9.55371 11.6668 9.63644 11.6668C9.71874 11.6668 9.80189 11.6402 9.87189 11.5864C10.0123 11.4797 10.0713 11.2904 10.0174 11.1175L9.10062 8.16283L11.5014 6.33705C11.6418 6.22994 11.7008 6.04061 11.6469 5.86772C11.5935 5.69483 11.4395 5.57794 11.2655 5.57794Z" fill="white"/>
</mask>
<g mask="url(#mask0_350_7147)">
<path d="M11.2655 5.57794H8.29796L7.38118 2.62327C7.32772 2.45038 7.17372 2.3335 6.99978 2.3335C6.82627 2.3335 6.67227 2.45038 6.61881 2.62327L5.70161 5.57794H2.73404C2.56052 5.57794 2.40653 5.69483 2.35307 5.86772C2.29919 6.04061 2.35816 6.22994 2.49859 6.33705L4.89937 8.16283L3.98216 11.1175C3.9287 11.2904 3.98725 11.4797 4.1281 11.5864C4.26852 11.6935 4.45858 11.6935 4.59943 11.5864L6.99978 9.76061L9.40056 11.5864C9.47099 11.6402 9.55371 11.6668 9.63644 11.6668C9.71874 11.6668 9.80189 11.6402 9.87189 11.5864C10.0123 11.4797 10.0713 11.2904 10.0174 11.1175L9.10062 8.16283L11.5014 6.33705C11.6418 6.22994 11.7008 6.04061 11.6469 5.86772C11.5935 5.69483 11.4395 5.57794 11.2655 5.57794Z" fill="white"/>
</g>
</g>
<defs>
<clipPath id="clip0_350_7147">
<rect width="14" height="14" fill="white"/>
</clipPath>
</defs>
</svg>
